<?xml version="1.0" encoding="UTF-8" standalone="no"?>
<!DOCTYPE svg PUBLIC "-//W3C//DTD SVG 1.1//EN" "http://www.w3.org/Graphics/SVG/1.1/DTD/svg11.dtd">
<!-- <svg version="1.1" xmlns="http://www.w3.org/2000/svg" xmlns:xlink="http://www.w3.org/1999/xlink" preserveAspectRatio="xMidYMid meet" viewBox="344.5639097744361 330.27819548872174 111.73684210526318 91.21804511278197" width="53.87" height="43.61"><defs><path d="M453.3 331.28L453.3 359.85L388.64 418.5L388.64 388.42L453.3 331.28Z" id="aFZf6T5ED"></path><linearGradient id="gradientb2ThqnP5Op" gradientUnits="userSpaceOnUse" x1="420.97" y1="331.28" x2="420.97" y2="418.5"><stop style="stop-color: #06b6d4;stop-opacity: 1" offset="0%"></stop><stop style="stop-color: #67e8f9;stop-opacity: 1" offset="100%"></stop></linearGradient><path d="M410.23 331.28L410.23 359.85L345.56 418.5L345.56 388.42L410.23 331.28Z" id="a9fehgwfM"></path><linearGradient id="gradientk1wNV9Ostb" gradientUnits="userSpaceOnUse" x1="377.89" y1="331.28" x2="377.89" y2="418.5"><stop style="stop-color: #06b6d4;stop-opacity: 1" offset="0%"></stop><stop style="stop-color: #67e8f9;stop-opacity: 1" offset="100%"></stop></linearGradient></defs><g><g><use xlink:href="#aFZf6T5ED" opacity="1" fill="url(#gradientb2ThqnP5Op)"></use></g><g><use xlink:href="#a9fehgwfM" opacity="1" fill="url(#gradientk1wNV9Ostb)"></use></g></g></svg> -->
<!-- <svg aria-hidden="true" xmlns="http://www.w3.org/2000/svg" width="24" height="24" viewBox="0 0 24 24">
    <rect x="2" y="2" width="20" height="20" fill="none" stroke="currentColor" stroke-width="2"></rect>
</svg> -->
<!-- <svg aria-hidden="true" xmlns="http://www.w3.org/2000/svg" width="24" height="24" viewBox="0 0 24 24">
    <rect x="2" y="2" width="20" height="20" fill="none" stroke="currentColor" stroke-width="2"></rect>
</svg> -->

<!-- <?xml version="1.0" encoding="UTF-8" standalone="no"?> -->
<!-- Created with Inkscape (http://www.inkscape.org/) -->

<svg
   width="40"
   height="40"
   viewBox="0 0 10.583333 10.583333"
   version="1.1"
   id="svg1"
   xml:space="preserve"
   xmlns="http://www.w3.org/2000/svg"
   xmlns:svg="http://www.w3.org/2000/svg"><defs
     id="defs1" /><g
     id="layer1"><g
       id="g36"
       transform="matrix(0.35690319,0,0,0.35690319,-37.114933,-21.360516)"
       style="stroke-width:2.80188"><path
         style="color:#000000;fill:#ffffff;stroke-width:2.80188;-inkscape-stroke:none;paint-order:fill markers stroke"
         d="m 119.63867,59.849609 c -1.92412,-0.1072 -3.90058,0.159735 -5.82617,0.851563 -7.70235,2.767313 -11.71235,11.276064 -8.94531,18.978515 l 1.49414,-0.535156 c -2.47699,-6.895043 1.09333,-14.471988 7.98828,-16.949219 6.89495,-2.47723 14.47174,1.093416 16.94922,7.988282 2.47747,6.894865 -1.09351,14.471495 -7.98828,16.949218 -6.89478,2.477724 -14.47125,-1.093592 -16.94922,-7.988281 l -1.49414,0.53711 c 2.76814,7.702055 11.27831,11.713176 18.98047,8.945312 7.70215,-2.767864 11.71094,-11.278215 8.94336,-18.980469 -2.0757,-5.77669 -7.37999,-9.475274 -13.15235,-9.796875 z"
         id="path34" /><path
         style="color:#000000;fill:#ffffff;stroke-width:2.80188;-inkscape-stroke:none;paint-order:fill markers stroke"
         d="m 124.19336,62.892578 -6.88477,10.433594 -3.50781,-5.785156 -8.8789,11.177734 1.24218,0.986328 7.46289,-9.392578 3.625,5.982422 6.84571,-10.375 c 1.3174,2.305378 2.95468,5.314874 4.44336,7.990234 0.84919,1.526117 1.61674,2.873042 2.19726,3.798828 0.29026,0.462893 0.52314,0.811396 0.74805,1.074219 0.11245,0.131411 0.16168,0.255729 0.49414,0.394531 0.16623,0.0694 0.55254,0.112573 0.83594,-0.09766 0.28339,-0.210229 0.32242,-0.45244 0.34179,-0.589844 l -1.57226,-0.222656 c 0.0102,-0.07243 0.0307,-0.272177 0.28515,-0.460937 0.25446,-0.188761 0.60225,-0.14516 0.72071,-0.0957 0.23691,0.09891 0.15232,0.102616 0.0996,0.04102 -0.10543,-0.1232 -0.33441,-0.451325 -0.60743,-0.886719 -0.54603,-0.870787 -1.30978,-2.208855 -2.15429,-3.726562 -1.68903,-3.035415 -3.706,-6.789783 -5.0918,-9.148438 z"
         id="path35" /></g></g></svg>
