<?xml version="1.0" encoding="UTF-8" standalone="no"?>
<!DOCTYPE svg PUBLIC "-//W3C//DTD SVG 1.1//EN" "http://www.w3.org/Graphics/SVG/1.1/DTD/svg11.dtd">


<!-- <?xml version="1.0" encoding="UTF-8" standalone="no"?> -->
<!-- Created with Inkscape (http://www.inkscape.org/) -->

<svg
   aria-hidden="true"
   width="40"
   height="40"
   viewBox="0 0 10.583333 10.583333"
   version="1.1"
   id="svg1"
   xmlns="http://www.w3.org/2000/svg"
   xmlns:svg="http://www.w3.org/2000/svg">
  <defs
     id="defs1" />
  <g
     id="layer1">
    <g
       id="g24">
      <path
         style="color:currentColor;fill:currentColor;fill-opacity:0.973451;-inkscape-stroke:none;paint-order:fill markers stroke"
         d="M 5.5800781,0.0078125 C 4.8938924,-0.03044026 4.1886083,0.06579747 3.5019531,0.3125 0.75533258,1.2993101 -0.6742119,4.3334223 0.3125,7.0800781 L 0.88476563,6.875 C 0.0092413,4.4378509 1.2718666,1.7603771 3.7089844,0.88476563 6.1461021,0.00915415 8.8235201,1.271898 9.6992188,3.7089844 10.574917,6.1460708 9.3120551,8.8234329 6.875,9.6992188 4.4379449,10.575005 1.7606386,9.3120238 0.88476563,6.875 L 0.3125,7.0820312 C 1.2996048,9.8285459 4.3335282,11.258491 7.0800781,10.271484 9.826628,9.2844777 11.258393,6.2485383 10.271484,3.5019531 9.5313031,1.4420142 7.6386354,0.12257078 5.5800781,0.0078125 Z"
         id="path21" />
      <path
         style="color:currentColor;fill:currentColor;fill-opacity:0.973451;-inkscape-stroke:none;paint-order:fill markers stroke"
         d="M 6.4082031,2.3359375 4.1679687,5.3476562 2.9492188,3.3613281 0.42382813,6.4570312 0.89648438,6.8417969 2.8789063,4.4101562 4.1191406,6.4316406 6.4394531,3.3125 9.7460938,7.1972656 10.208984,6.8027344 Z"
         id="path22" />
    </g>
  </g>
</svg>

